# xmcd CD database file
#
# Track frame offsets:
#	150
#	21020
#	33680
#	53559
#
# Disc length: 1002 seconds
#
# Revision: 0
# Processed by: cddbd v1.5PL3 Copyright (c) Steve Scherf et al.
# Submitted via: CDex 1.51
#
DISCID=2903e804
DTITLE=ZAZEN BOYS - 半透明少女関係
DYEAR=2004
DGENRE=Rock
TTITLE0=半透明少女関係
TTITLE1=TANUKI
TTITLE2=六階の少女
TTITLE3=Delayed Brain
EXTD=YEAR: 2004
EXTT0=
EXTT1=
EXTT2=
EXTT3=
PLAYORDER=
